<mxfile host="Electron" agent="Mozilla/5.0 (Windows NT 10.0; Win64; x64) AppleWebKit/537.36 (KHTML, like Gecko) draw.io/24.7.17 Chrome/128.0.6613.36 Electron/32.0.1 Safari/537.36" version="24.7.17">
  <diagram name="Страница — 1" id="xXQGfWywjxZMMyrpvKnd">
    <mxGraphModel dx="1434" dy="884" grid="1" gridSize="10" guides="1" tooltips="1" connect="1" arrows="1" fold="1" page="1" pageScale="1" pageWidth="827" pageHeight="1169" math="0" shadow="0">
      <root>
        <mxCell id="0" />
        <mxCell id="1" parent="0" />
        <mxCell id="yAFp0HQ54XQ6Wf1ObPv--26" value="1" style="edgeStyle=orthogonalEdgeStyle;rounded=0;orthogonalLoop=1;jettySize=auto;html=1;exitX=1;exitY=0.5;exitDx=0;exitDy=0;entryX=0;entryY=0.5;entryDx=0;entryDy=0;endArrow=none;endFill=0;" edge="1" parent="1" source="yAFp0HQ54XQ6Wf1ObPv--1" target="yAFp0HQ54XQ6Wf1ObPv--25">
          <mxGeometry x="0.6949" y="10" relative="1" as="geometry">
            <mxPoint as="offset" />
          </mxGeometry>
        </mxCell>
        <mxCell id="yAFp0HQ54XQ6Wf1ObPv--1" value="Машины" style="rounded=0;whiteSpace=wrap;html=1;" vertex="1" parent="1">
          <mxGeometry x="200" y="210" width="100" height="40" as="geometry" />
        </mxCell>
        <mxCell id="yAFp0HQ54XQ6Wf1ObPv--9" style="edgeStyle=orthogonalEdgeStyle;rounded=0;orthogonalLoop=1;jettySize=auto;html=1;exitX=1;exitY=0.5;exitDx=0;exitDy=0;entryX=0;entryY=0.5;entryDx=0;entryDy=0;endArrow=none;endFill=0;" edge="1" parent="1" source="yAFp0HQ54XQ6Wf1ObPv--2" target="yAFp0HQ54XQ6Wf1ObPv--1">
          <mxGeometry relative="1" as="geometry" />
        </mxCell>
        <mxCell id="yAFp0HQ54XQ6Wf1ObPv--2" value="Бренд" style="ellipse;whiteSpace=wrap;html=1;" vertex="1" parent="1">
          <mxGeometry x="40" y="70" width="100" height="50" as="geometry" />
        </mxCell>
        <mxCell id="yAFp0HQ54XQ6Wf1ObPv--10" style="edgeStyle=orthogonalEdgeStyle;rounded=0;orthogonalLoop=1;jettySize=auto;html=1;exitX=1;exitY=0.5;exitDx=0;exitDy=0;endArrow=none;endFill=0;" edge="1" parent="1" source="yAFp0HQ54XQ6Wf1ObPv--4">
          <mxGeometry relative="1" as="geometry">
            <mxPoint x="170" y="230" as="targetPoint" />
          </mxGeometry>
        </mxCell>
        <mxCell id="yAFp0HQ54XQ6Wf1ObPv--4" value="Модель" style="ellipse;whiteSpace=wrap;html=1;" vertex="1" parent="1">
          <mxGeometry x="40" y="130" width="100" height="50" as="geometry" />
        </mxCell>
        <mxCell id="yAFp0HQ54XQ6Wf1ObPv--11" style="edgeStyle=orthogonalEdgeStyle;rounded=0;orthogonalLoop=1;jettySize=auto;html=1;exitX=1;exitY=0.5;exitDx=0;exitDy=0;endArrow=none;endFill=0;" edge="1" parent="1" source="yAFp0HQ54XQ6Wf1ObPv--5">
          <mxGeometry relative="1" as="geometry">
            <mxPoint x="170" y="230" as="targetPoint" />
          </mxGeometry>
        </mxCell>
        <mxCell id="yAFp0HQ54XQ6Wf1ObPv--5" value="Бренд" style="ellipse;whiteSpace=wrap;html=1;" vertex="1" parent="1">
          <mxGeometry x="40" y="190" width="100" height="50" as="geometry" />
        </mxCell>
        <mxCell id="yAFp0HQ54XQ6Wf1ObPv--12" style="edgeStyle=orthogonalEdgeStyle;rounded=0;orthogonalLoop=1;jettySize=auto;html=1;exitX=1;exitY=0.5;exitDx=0;exitDy=0;endArrow=none;endFill=0;" edge="1" parent="1" source="yAFp0HQ54XQ6Wf1ObPv--6">
          <mxGeometry relative="1" as="geometry">
            <mxPoint x="170" y="230" as="targetPoint" />
          </mxGeometry>
        </mxCell>
        <mxCell id="yAFp0HQ54XQ6Wf1ObPv--6" value="Кузов" style="ellipse;whiteSpace=wrap;html=1;" vertex="1" parent="1">
          <mxGeometry x="40" y="250" width="100" height="50" as="geometry" />
        </mxCell>
        <mxCell id="yAFp0HQ54XQ6Wf1ObPv--13" style="edgeStyle=orthogonalEdgeStyle;rounded=0;orthogonalLoop=1;jettySize=auto;html=1;exitX=1;exitY=0.5;exitDx=0;exitDy=0;endArrow=none;endFill=0;" edge="1" parent="1" source="yAFp0HQ54XQ6Wf1ObPv--7">
          <mxGeometry relative="1" as="geometry">
            <mxPoint x="170" y="270" as="targetPoint" />
          </mxGeometry>
        </mxCell>
        <mxCell id="yAFp0HQ54XQ6Wf1ObPv--7" value="Год производства" style="ellipse;whiteSpace=wrap;html=1;" vertex="1" parent="1">
          <mxGeometry x="40" y="310" width="100" height="50" as="geometry" />
        </mxCell>
        <mxCell id="yAFp0HQ54XQ6Wf1ObPv--14" style="edgeStyle=orthogonalEdgeStyle;rounded=0;orthogonalLoop=1;jettySize=auto;html=1;exitX=1;exitY=0.5;exitDx=0;exitDy=0;endArrow=none;endFill=0;" edge="1" parent="1" source="yAFp0HQ54XQ6Wf1ObPv--8">
          <mxGeometry relative="1" as="geometry">
            <mxPoint x="170" y="330" as="targetPoint" />
          </mxGeometry>
        </mxCell>
        <mxCell id="yAFp0HQ54XQ6Wf1ObPv--8" value="Тип двигателя" style="ellipse;whiteSpace=wrap;html=1;" vertex="1" parent="1">
          <mxGeometry x="40" y="370" width="100" height="50" as="geometry" />
        </mxCell>
        <mxCell id="yAFp0HQ54XQ6Wf1ObPv--24" style="edgeStyle=orthogonalEdgeStyle;rounded=0;orthogonalLoop=1;jettySize=auto;html=1;exitX=0.5;exitY=0;exitDx=0;exitDy=0;entryX=0.5;entryY=1;entryDx=0;entryDy=0;endArrow=none;endFill=0;" edge="1" parent="1" source="yAFp0HQ54XQ6Wf1ObPv--16" target="yAFp0HQ54XQ6Wf1ObPv--20">
          <mxGeometry relative="1" as="geometry" />
        </mxCell>
        <mxCell id="yAFp0HQ54XQ6Wf1ObPv--16" value="Цены" style="rounded=0;whiteSpace=wrap;html=1;" vertex="1" parent="1">
          <mxGeometry x="314" y="110" width="100" height="40" as="geometry" />
        </mxCell>
        <mxCell id="yAFp0HQ54XQ6Wf1ObPv--18" style="edgeStyle=orthogonalEdgeStyle;rounded=0;orthogonalLoop=1;jettySize=auto;html=1;exitX=1;exitY=0.5;exitDx=0;exitDy=0;endArrow=none;endFill=0;" edge="1" parent="1" source="yAFp0HQ54XQ6Wf1ObPv--17">
          <mxGeometry relative="1" as="geometry">
            <mxPoint x="170" y="100" as="targetPoint" />
          </mxGeometry>
        </mxCell>
        <mxCell id="yAFp0HQ54XQ6Wf1ObPv--17" value="vin" style="ellipse;whiteSpace=wrap;html=1;" vertex="1" parent="1">
          <mxGeometry x="40" y="10" width="100" height="50" as="geometry" />
        </mxCell>
        <mxCell id="yAFp0HQ54XQ6Wf1ObPv--21" style="edgeStyle=orthogonalEdgeStyle;rounded=0;orthogonalLoop=1;jettySize=auto;html=1;exitX=0.5;exitY=1;exitDx=0;exitDy=0;entryX=0.5;entryY=0;entryDx=0;entryDy=0;endArrow=none;endFill=0;" edge="1" parent="1" source="yAFp0HQ54XQ6Wf1ObPv--19" target="yAFp0HQ54XQ6Wf1ObPv--16">
          <mxGeometry relative="1" as="geometry" />
        </mxCell>
        <mxCell id="yAFp0HQ54XQ6Wf1ObPv--19" value="vin" style="ellipse;whiteSpace=wrap;html=1;" vertex="1" parent="1">
          <mxGeometry x="260" y="10" width="100" height="50" as="geometry" />
        </mxCell>
        <mxCell id="yAFp0HQ54XQ6Wf1ObPv--20" value="Цена" style="ellipse;whiteSpace=wrap;html=1;" vertex="1" parent="1">
          <mxGeometry x="390" y="10" width="100" height="50" as="geometry" />
        </mxCell>
        <mxCell id="yAFp0HQ54XQ6Wf1ObPv--27" value="1" style="edgeStyle=orthogonalEdgeStyle;rounded=0;orthogonalLoop=1;jettySize=auto;html=1;exitX=0.5;exitY=0;exitDx=0;exitDy=0;entryX=0.5;entryY=1;entryDx=0;entryDy=0;endArrow=none;endFill=0;" edge="1" parent="1" source="yAFp0HQ54XQ6Wf1ObPv--25" target="yAFp0HQ54XQ6Wf1ObPv--16">
          <mxGeometry x="-1" y="-16" relative="1" as="geometry">
            <mxPoint as="offset" />
          </mxGeometry>
        </mxCell>
        <mxCell id="yAFp0HQ54XQ6Wf1ObPv--25" value="Цена" style="rhombus;whiteSpace=wrap;html=1;" vertex="1" parent="1">
          <mxGeometry x="329" y="170" width="70" height="60" as="geometry" />
        </mxCell>
        <mxCell id="yAFp0HQ54XQ6Wf1ObPv--63" style="edgeStyle=orthogonalEdgeStyle;rounded=0;orthogonalLoop=1;jettySize=auto;html=1;exitX=1;exitY=0.5;exitDx=0;exitDy=0;entryX=0;entryY=0.5;entryDx=0;entryDy=0;endArrow=none;endFill=0;" edge="1" parent="1" source="yAFp0HQ54XQ6Wf1ObPv--28" target="yAFp0HQ54XQ6Wf1ObPv--31">
          <mxGeometry relative="1" as="geometry" />
        </mxCell>
        <mxCell id="yAFp0HQ54XQ6Wf1ObPv--64" style="edgeStyle=orthogonalEdgeStyle;rounded=0;orthogonalLoop=1;jettySize=auto;html=1;exitX=1;exitY=0.5;exitDx=0;exitDy=0;entryX=0;entryY=0.5;entryDx=0;entryDy=0;endArrow=none;endFill=0;" edge="1" parent="1" source="yAFp0HQ54XQ6Wf1ObPv--28" target="yAFp0HQ54XQ6Wf1ObPv--32">
          <mxGeometry relative="1" as="geometry" />
        </mxCell>
        <mxCell id="yAFp0HQ54XQ6Wf1ObPv--65" style="edgeStyle=orthogonalEdgeStyle;rounded=0;orthogonalLoop=1;jettySize=auto;html=1;exitX=1;exitY=0.5;exitDx=0;exitDy=0;entryX=0;entryY=0.5;entryDx=0;entryDy=0;endArrow=none;endFill=0;" edge="1" parent="1" source="yAFp0HQ54XQ6Wf1ObPv--28" target="yAFp0HQ54XQ6Wf1ObPv--33">
          <mxGeometry relative="1" as="geometry" />
        </mxCell>
        <mxCell id="yAFp0HQ54XQ6Wf1ObPv--66" style="edgeStyle=orthogonalEdgeStyle;rounded=0;orthogonalLoop=1;jettySize=auto;html=1;exitX=1;exitY=0.5;exitDx=0;exitDy=0;entryX=0;entryY=0.5;entryDx=0;entryDy=0;endArrow=none;endFill=0;" edge="1" parent="1" source="yAFp0HQ54XQ6Wf1ObPv--28" target="yAFp0HQ54XQ6Wf1ObPv--34">
          <mxGeometry relative="1" as="geometry" />
        </mxCell>
        <mxCell id="yAFp0HQ54XQ6Wf1ObPv--28" value="Двигатели" style="rounded=0;whiteSpace=wrap;html=1;" vertex="1" parent="1">
          <mxGeometry x="450" y="480" width="100" height="40" as="geometry" />
        </mxCell>
        <mxCell id="yAFp0HQ54XQ6Wf1ObPv--61" style="edgeStyle=orthogonalEdgeStyle;rounded=0;orthogonalLoop=1;jettySize=auto;html=1;exitX=0;exitY=0.5;exitDx=0;exitDy=0;entryX=1;entryY=0.5;entryDx=0;entryDy=0;endArrow=none;endFill=0;" edge="1" parent="1" source="yAFp0HQ54XQ6Wf1ObPv--30" target="yAFp0HQ54XQ6Wf1ObPv--28">
          <mxGeometry relative="1" as="geometry" />
        </mxCell>
        <mxCell id="yAFp0HQ54XQ6Wf1ObPv--30" value="id" style="ellipse;whiteSpace=wrap;html=1;" vertex="1" parent="1">
          <mxGeometry x="600" y="520" width="100" height="50" as="geometry" />
        </mxCell>
        <mxCell id="yAFp0HQ54XQ6Wf1ObPv--31" value="Тип двигателя" style="ellipse;whiteSpace=wrap;html=1;" vertex="1" parent="1">
          <mxGeometry x="600" y="585" width="100" height="50" as="geometry" />
        </mxCell>
        <mxCell id="yAFp0HQ54XQ6Wf1ObPv--32" value="Мощность" style="ellipse;whiteSpace=wrap;html=1;" vertex="1" parent="1">
          <mxGeometry x="600" y="650" width="100" height="50" as="geometry" />
        </mxCell>
        <mxCell id="yAFp0HQ54XQ6Wf1ObPv--33" value="Цилиндры" style="ellipse;whiteSpace=wrap;html=1;" vertex="1" parent="1">
          <mxGeometry x="600" y="710" width="100" height="50" as="geometry" />
        </mxCell>
        <mxCell id="yAFp0HQ54XQ6Wf1ObPv--34" value="Объем" style="ellipse;whiteSpace=wrap;html=1;" vertex="1" parent="1">
          <mxGeometry x="600" y="770" width="100" height="50" as="geometry" />
        </mxCell>
        <mxCell id="yAFp0HQ54XQ6Wf1ObPv--60" value="n" style="edgeStyle=orthogonalEdgeStyle;rounded=0;orthogonalLoop=1;jettySize=auto;html=1;exitX=0;exitY=0.5;exitDx=0;exitDy=0;entryX=0.25;entryY=1;entryDx=0;entryDy=0;endArrow=ERmany;endFill=0;" edge="1" parent="1" source="yAFp0HQ54XQ6Wf1ObPv--40" target="yAFp0HQ54XQ6Wf1ObPv--1">
          <mxGeometry x="-1" y="-20" relative="1" as="geometry">
            <mxPoint as="offset" />
          </mxGeometry>
        </mxCell>
        <mxCell id="yAFp0HQ54XQ6Wf1ObPv--40" value="Установлен" style="rhombus;whiteSpace=wrap;html=1;" vertex="1" parent="1">
          <mxGeometry x="255" y="360" width="105" height="60" as="geometry" />
        </mxCell>
        <mxCell id="yAFp0HQ54XQ6Wf1ObPv--50" style="edgeStyle=orthogonalEdgeStyle;rounded=0;orthogonalLoop=1;jettySize=auto;html=1;exitX=0.5;exitY=0;exitDx=0;exitDy=0;entryX=0;entryY=0.5;entryDx=0;entryDy=0;endArrow=none;endFill=0;" edge="1" parent="1" source="yAFp0HQ54XQ6Wf1ObPv--43" target="yAFp0HQ54XQ6Wf1ObPv--47">
          <mxGeometry relative="1" as="geometry" />
        </mxCell>
        <mxCell id="yAFp0HQ54XQ6Wf1ObPv--43" value="Салоны" style="rounded=0;whiteSpace=wrap;html=1;" vertex="1" parent="1">
          <mxGeometry x="690" y="300" width="100" height="40" as="geometry" />
        </mxCell>
        <mxCell id="yAFp0HQ54XQ6Wf1ObPv--58" style="edgeStyle=orthogonalEdgeStyle;rounded=0;orthogonalLoop=1;jettySize=auto;html=1;exitX=0;exitY=0.5;exitDx=0;exitDy=0;endArrow=none;endFill=0;" edge="1" parent="1" source="yAFp0HQ54XQ6Wf1ObPv--44">
          <mxGeometry relative="1" as="geometry">
            <mxPoint x="630" y="180" as="targetPoint" />
          </mxGeometry>
        </mxCell>
        <mxCell id="yAFp0HQ54XQ6Wf1ObPv--44" value="ogrn" style="ellipse;whiteSpace=wrap;html=1;" vertex="1" parent="1">
          <mxGeometry x="650" y="30" width="100" height="50" as="geometry" />
        </mxCell>
        <mxCell id="yAFp0HQ54XQ6Wf1ObPv--59" style="edgeStyle=orthogonalEdgeStyle;rounded=0;orthogonalLoop=1;jettySize=auto;html=1;exitX=0;exitY=0.5;exitDx=0;exitDy=0;endArrow=none;endFill=0;" edge="1" parent="1" source="yAFp0HQ54XQ6Wf1ObPv--46">
          <mxGeometry relative="1" as="geometry">
            <mxPoint x="630" y="140" as="targetPoint" />
          </mxGeometry>
        </mxCell>
        <mxCell id="yAFp0HQ54XQ6Wf1ObPv--46" value="Название" style="ellipse;whiteSpace=wrap;html=1;" vertex="1" parent="1">
          <mxGeometry x="650" y="90" width="100" height="50" as="geometry" />
        </mxCell>
        <mxCell id="yAFp0HQ54XQ6Wf1ObPv--47" value="Адрес" style="ellipse;whiteSpace=wrap;html=1;" vertex="1" parent="1">
          <mxGeometry x="650" y="150" width="100" height="50" as="geometry" />
        </mxCell>
        <mxCell id="yAFp0HQ54XQ6Wf1ObPv--51" value="Продается" style="rhombus;whiteSpace=wrap;html=1;" vertex="1" parent="1">
          <mxGeometry x="530" y="290" width="105" height="60" as="geometry" />
        </mxCell>
        <mxCell id="yAFp0HQ54XQ6Wf1ObPv--53" value="m" style="edgeStyle=entityRelationEdgeStyle;fontSize=12;html=1;endArrow=ERmany;rounded=0;entryX=0;entryY=0.5;entryDx=0;entryDy=0;" edge="1" parent="1" source="yAFp0HQ54XQ6Wf1ObPv--51" target="yAFp0HQ54XQ6Wf1ObPv--43">
          <mxGeometry x="-1" y="11" width="100" height="100" relative="1" as="geometry">
            <mxPoint x="450" y="430" as="sourcePoint" />
            <mxPoint x="550" y="330" as="targetPoint" />
            <mxPoint x="-5" y="1" as="offset" />
          </mxGeometry>
        </mxCell>
        <mxCell id="yAFp0HQ54XQ6Wf1ObPv--54" value="n" style="edgeStyle=entityRelationEdgeStyle;fontSize=12;html=1;endArrow=ERmany;rounded=0;entryX=1;entryY=0.75;entryDx=0;entryDy=0;exitX=0;exitY=0.5;exitDx=0;exitDy=0;" edge="1" parent="1" source="yAFp0HQ54XQ6Wf1ObPv--51" target="yAFp0HQ54XQ6Wf1ObPv--1">
          <mxGeometry x="-1" y="-10" width="100" height="100" relative="1" as="geometry">
            <mxPoint x="435" y="570" as="sourcePoint" />
            <mxPoint x="360" y="310" as="targetPoint" />
            <Array as="points">
              <mxPoint x="395" y="360" />
            </Array>
            <mxPoint as="offset" />
          </mxGeometry>
        </mxCell>
        <mxCell id="yAFp0HQ54XQ6Wf1ObPv--56" value="1" style="edgeStyle=entityRelationEdgeStyle;fontSize=12;html=1;endArrow=none;rounded=0;exitX=1;exitY=0.5;exitDx=0;exitDy=0;entryX=0;entryY=0.25;entryDx=0;entryDy=0;endFill=0;" edge="1" parent="1" source="yAFp0HQ54XQ6Wf1ObPv--40" target="yAFp0HQ54XQ6Wf1ObPv--28">
          <mxGeometry x="-1" y="20" width="100" height="100" relative="1" as="geometry">
            <mxPoint x="450" y="430" as="sourcePoint" />
            <mxPoint x="550" y="330" as="targetPoint" />
            <Array as="points">
              <mxPoint x="233" y="410" />
              <mxPoint x="240" y="410" />
            </Array>
            <mxPoint as="offset" />
          </mxGeometry>
        </mxCell>
      </root>
    </mxGraphModel>
  </diagram>
</mxfile>
